<svg width="20" height="20" viewBox="0 0 20 20" fill="none" xmlns="http://www.w3.org/2000/svg">
<g clip-path="url(#clip0_33_177)">
<path d="M7.33289 14.6768V18.5418C7.33289 18.8118 7.49947 19.0509 7.74613 19.1359C7.8078 19.1568 7.87107 19.1668 7.93353 19.1668C8.12094 19.1668 8.30193 19.0751 8.41726 18.9118L10.59 15.8351L7.33289 14.6768Z" fill="white"/>
<path d="M19.2924 0.114931C19.1082 -0.0209027 18.8663 -0.0392361 18.6661 0.0699306L0.646637 9.8616C0.433607 9.97743 0.307871 10.2141 0.32549 10.4633C0.34391 10.7133 0.503282 10.9266 0.729927 11.0074L5.73934 12.7891L16.4077 3.29743L8.15235 13.6466L16.5478 16.6324C16.6103 16.6541 16.676 16.6658 16.7416 16.6658C16.8506 16.6658 16.9587 16.6349 17.054 16.5749C17.2061 16.4783 17.3095 16.3158 17.3359 16.1333L19.5383 0.716597C19.5711 0.483264 19.4766 0.251597 19.2924 0.114931Z" fill="white"/>
</g>
<defs>
<clipPath id="clip0_33_177">
<rect width="19.2208" height="20" fill="white" transform="translate(0.324707)"/>
</clipPath>
</defs>
</svg>
